<svg version="1.1" xmlns="http://www.w3.org/2000/svg" xmlns:xlink="http://www.w3.org/1999/xlink" width="512.000000pt" height="512.000000pt" viewBox="0,0,256,256"><g fill="#b7c13a" fill-rule="nonzero" stroke="none" stroke-width="1" stroke-linecap="butt" stroke-linejoin="miter" stroke-miterlimit="10" stroke-dasharray="" stroke-dashoffset="0" font-family="none" font-weight="none" font-size="none" text-anchor="none" style="mix-blend-mode: normal"><g transform="translate(-0.15868,-0.02476) scale(0.5,0.5)"><g transform="translate(0,512) scale(0.1,-0.1)"><path d="M205,5104c-112,-41 -170,-187 -116,-293c11,-21 397,-569 857,-1217c461,-648 851,-1203 867,-1231c15,-29 34,-67 40,-85c8,-24 13,-318 17,-1073c6,-1150 1,-1075 70,-1142c46,-45 108,-67 168,-60c68,9 1027,378 1070,412c19,15 43,46 53,69c18,39 19,81 19,861c0,905 0,905 62,1016c18,33 409,589 869,1237c460,647 844,1192 853,1211c10,18 20,56 23,85c7,72 -34,149 -102,191l-48,30l-2331,2c-2020,1 -2336,0 -2371,-13z"></path></g></g></g></svg>