<svg version="1.1" xmlns="http://www.w3.org/2000/svg" xmlns:xlink="http://www.w3.org/1999/xlink" width="512.000000pt" height="512.000000pt" viewBox="0,0,256,256"><g fill="#b7c13a" fill-rule="nonzero" stroke="none" stroke-width="1" stroke-linecap="butt" stroke-linejoin="miter" stroke-miterlimit="10" stroke-dasharray="" stroke-dashoffset="0" font-family="none" font-weight="none" font-size="none" text-anchor="none" style="mix-blend-mode: normal"><g transform="translate(0.02331,0.046) scale(0.5,0.5)"><g transform="translate(0,512) scale(0.1,-0.1)"><path d="M2443,5105c-130,-36 -94,-3 -1246,-1153c-598,-598 -1101,-1107 -1117,-1131c-124,-185 -99,-433 59,-592c92,-91 209,-139 343,-139h68v-800c0,-541 4,-816 11,-852c38,-182 185,-347 367,-410c66,-23 71,-23 554,-23c476,0 487,0 514,21c15,11 37,33 48,48c21,27 21,40 26,695l5,668l30,49c38,61 115,110 189,119c28,4 168,5 311,3l260,-3l53,-29c50,-28 82,-61 113,-116c11,-21 15,-144 19,-692c5,-654 5,-667 26,-694c11,-15 33,-37 48,-48c27,-21 38,-21 514,-21c483,0 488,0 554,23c182,63 329,228 367,410c7,36 11,311 11,852v800h68c240,0 434,163 474,398c15,92 0,190 -43,282c-29,60 -116,150 -1118,1153c-597,598 -1107,1101 -1133,1118c-26,17 -71,40 -100,51c-70,27 -204,33 -275,13z"></path></g></g></g></svg>