<svg version="1.1" xmlns="http://www.w3.org/2000/svg" xmlns:xlink="http://www.w3.org/1999/xlink" width="512.000000pt" height="512.000000pt" viewBox="0,0,256,256"><g fill="#b7c13a" fill-rule="nonzero" stroke="none" stroke-width="1" stroke-linecap="butt" stroke-linejoin="miter" stroke-miterlimit="10" stroke-dasharray="" stroke-dashoffset="0" font-family="none" font-weight="none" font-size="none" text-anchor="none" style="mix-blend-mode: normal"><g transform="translate(0,-0.08679) scale(0.5,0.5)"><g transform="translate(0,512) scale(0.1,-0.1)"><path d="M2320,5106c-508,-91 -923,-411 -1127,-869c-100,-227 -123,-356 -130,-739l-6,-298h-179h-180l-29,-29l-29,-29v-1399c0,-1551 -5,-1439 65,-1548c55,-85 133,-146 229,-178c45,-16 182,-17 1626,-17c1444,0 1581,1 1626,17c96,32 174,93 229,178c70,109 65,-3 65,1548v1399l-29,29l-29,29h-180h-179l-6,298c-4,211 -10,322 -21,385c-114,613 -563,1076 -1176,1212c-102,23 -436,29 -540,11zM2732,4456c312,-67 564,-307 649,-622c19,-69 23,-112 27,-356l4,-278h-852h-852l4,278c4,244 8,287 27,356c84,312 335,554 645,621c81,18 265,18 348,1zM2664,2325c224,-58 361,-291 302,-513c-19,-70 -71,-156 -120,-198l-40,-34l32,-293c37,-334 38,-354 14,-383c-33,-41 -52,-44 -292,-44c-240,0 -259,3 -292,44c-24,29 -23,49 14,383l32,293l-40,34c-49,42 -101,128 -120,198c-81,306 203,593 510,513z"></path></g></g></g></svg>