<svg version="1.1" xmlns="http://www.w3.org/2000/svg" xmlns:xlink="http://www.w3.org/1999/xlink" width="512.000000pt" height="512.000000pt" viewBox="0,0,256,256"><g fill="#b7c13a" fill-rule="nonzero" stroke="none" stroke-width="1" stroke-linecap="butt" stroke-linejoin="miter" stroke-miterlimit="10" stroke-dasharray="" stroke-dashoffset="0" font-family="none" font-weight="none" font-size="none" text-anchor="none" style="mix-blend-mode: normal"><g transform="scale(0.5,0.5)"><g transform="translate(0,512) scale(0.1,-0.1)"><path d="M300,2710v-2410h-150h-150v-150v-150h2025h2025v150v150h-225h-225v1055v1055h310h310v-900v-900h450h450v1831v1832l-315,394c-286,356 -317,392 -334,381c-60,-43 -220,-174 -221,-181c0,-4 117,-154 260,-332l260,-325h-275h-275v-600v-600h300h300v-1050v-1050h-150h-150v900v900h-460h-460v1205v1205h-1650h-1650zM3300,4065v-755h-1350h-1350v755v755h1350h1350zM4820,3610v-300h-150h-150v300v300h150h150zM3300,1655v-1355h-600h-600v189v189l54,41c82,64 263,255 334,353c81,112 143,231 177,338c36,112 45,296 22,412c-48,231 -181,445 -419,674c-114,109 -290,244 -318,244c-28,0 -204,-135 -318,-244c-238,-229 -371,-443 -419,-674c-23,-116 -14,-300 22,-412c34,-107 96,-226 177,-338c71,-98 252,-289 334,-353l54,-41v-189v-189h-600h-600v1355v1355h1350h1350zM2055,2268c263,-251 377,-507 324,-726c-28,-117 -119,-272 -228,-392l-50,-55l-1,433v432h-150h-150v-432l-1,-433l-40,45c-117,131 -211,290 -238,402c-15,66 -14,183 4,251c19,71 74,182 133,267c46,66 274,300 292,300c5,0 53,-41 105,-92z"></path><path d="M900,4060v-450h1050h1050v450v450h-1050h-1050zM2700,4060v-150h-750h-750v150v150h750h750z"></path></g></g></g></svg>