<svg version="1.1" xmlns="http://www.w3.org/2000/svg" xmlns:xlink="http://www.w3.org/1999/xlink" width="512.000000pt" height="512.000000pt" viewBox="0,0,256,256"><g fill="#b7c13a" fill-rule="nonzero" stroke="none" stroke-width="1" stroke-linecap="butt" stroke-linejoin="miter" stroke-miterlimit="10" stroke-dasharray="" stroke-dashoffset="0" font-family="none" font-weight="none" font-size="none" text-anchor="none" style="mix-blend-mode: normal"><g transform="translate(0.13808,-0.00498) scale(0.5,0.5)"><g transform="translate(0,512) scale(0.1,-0.1)"><path d="M2350,5113c-175,-28 -327,-80 -444,-150c-181,-108 -346,-272 -454,-450c-56,-92 -106,-220 -134,-338c-29,-125 -36,-375 -14,-501c64,-368 285,-680 618,-871c328,-188 765,-204 1124,-42c120,54 233,137 350,253c262,262 377,560 361,928c-15,327 -126,584 -354,815c-182,185 -409,304 -660,348c-79,14 -327,19 -393,8z"></path><path d="M1410,2644c-126,-19 -210,-44 -312,-95c-195,-96 -342,-255 -458,-494c-146,-301 -220,-670 -220,-1106c0,-264 19,-358 103,-524c31,-61 63,-102 132,-171c98,-99 183,-155 302,-197c165,-60 110,-58 1639,-55l1399,3l85,26c108,34 165,59 237,105c167,106 290,274 343,464c32,119 41,261 30,480c-50,980 -422,1532 -1055,1567c-136,7 -138,7 -371,-143c-180,-115 -305,-172 -471,-215c-125,-33 -349,-33 -473,-1c-177,46 -296,101 -476,218c-66,43 -147,93 -182,111c-58,30 -71,33 -145,32c-45,-1 -93,-3 -107,-5z"></path></g></g></g></svg>